<?xml version="1.0" encoding="UTF-8"?>
<svg xmlns="http://www.w3.org/2000/svg" width="256" height="256" viewBox="-4 -4 108 108" aria-label="Осёл" role="img"><defs><radialGradient id="g-Осёл-256" cx="50%" cy="35%" r="70%"><stop offset="0" stop-color="#b9c2cc"></stop><stop offset="1" stop-color="#4a5560"></stop></radialGradient><clipPath id="g-Осёл-256-clip"><circle cx="50" cy="50" r="48"></circle></clipPath></defs><circle cx="50" cy="50" r="48" fill="url(#g-Осёл-256)"></circle><g clip-path="url(#g-Осёл-256-clip)"><g><path d="M30 34 L20 6 L38 28Z" fill="#8a8f96"></path><path d="M70 34 L80 6 L62 28Z" fill="#8a8f96"></path><path d="M31 30 L24 12 L36 27Z M69 30 L76 12 L64 27Z" fill="#3b3f45"></path><path d="M48 20 Q52 12 56 20 Q58 14 60 22" stroke="#3b3f45" stroke-width="3" fill="none"></path><ellipse cx="50" cy="46" rx="22" ry="22" fill="#9aa0a8"></ellipse><ellipse cx="50" cy="70" rx="19" ry="16" fill="#d8d3cb"></ellipse><g><ellipse cx="40" cy="42" rx="6" ry="6.4" fill="#fff"></ellipse><circle cx="41.2" cy="42.6" r="2.728" fill="#3a2410"></circle><circle cx="42.2" cy="41.4" r="0.9680000000000001" fill="#fff"></circle></g><g><ellipse cx="60" cy="42" rx="6" ry="6.4" fill="#fff"></ellipse><circle cx="59.6" cy="42.6" r="2.728" fill="#3a2410"></circle><circle cx="60.6" cy="41.4" r="0.9680000000000001" fill="#fff"></circle></g><ellipse cx="42" cy="66" rx="2.5" ry="1.6" fill="#3b3f45"></ellipse><ellipse cx="58" cy="66" rx="2.5" ry="1.6" fill="#3b3f45"></ellipse><path d="M36 75 Q50 88 64 75Z" fill="#5b1a1a"></path><rect x="42" y="75" width="16" height="6" rx="1" fill="#fffbe8"></rect><line x1="50" y1="75" x2="50" y2="81" stroke="#cfc8b0"></line></g></g><circle cx="50" cy="50" r="49" fill="none" stroke="#3b2417" stroke-width="5"></circle><circle cx="50" cy="50" r="49" fill="none" stroke="#d4a017" stroke-width="2.5"></circle></svg>
