<?xml version="1.0" encoding="UTF-8"?>
<svg xmlns="http://www.w3.org/2000/svg" width="256" height="256" viewBox="-4 -4 108 108" aria-label="Луковица" role="img"><defs><radialGradient id="g-Луковица-256" cx="50%" cy="35%" r="70%"><stop offset="0" stop-color="#e8daef"></stop><stop offset="1" stop-color="#5b2c6f"></stop></radialGradient><clipPath id="g-Луковица-256-clip"><circle cx="50" cy="50" r="48"></circle></clipPath></defs><circle cx="50" cy="50" r="48" fill="url(#g-Луковица-256)"></circle><g clip-path="url(#g-Луковица-256-clip)"><g><path d="M50 16 C44 26 22 40 22 62 C22 80 36 90 50 90 C64 90 78 80 78 62 C78 40 56 26 50 16Z" fill="#c39bd3" stroke="#6c3483" stroke-width="2"></path><path d="M50 18 C42 34 34 48 34 64 C34 78 42 88 50 90 M50 18 C58 34 66 48 66 64 C66 78 58 88 50 90 M50 18 L50 90" stroke="#8e44ad" stroke-width="1.6" fill="none"></path><path d="M50 16 C48 8 44 4 40 4 M50 16 C52 8 58 6 62 8" stroke="#58a834" stroke-width="3" fill="none" stroke-linecap="round"></path><path d="M42 88 L40 94 M50 90 L50 96 M58 88 L60 94" stroke="#d7bde2" stroke-width="1.6"></path></g></g><circle cx="50" cy="50" r="49" fill="none" stroke="#3b2417" stroke-width="5"></circle><circle cx="50" cy="50" r="49" fill="none" stroke="#d4a017" stroke-width="2.5"></circle></svg>
