<?xml version="1.0" encoding="UTF-8"?>
<svg xmlns="http://www.w3.org/2000/svg" width="256" height="256" viewBox="-4 -4 108 108" aria-label="Румпельштильцхен" role="img"><defs><radialGradient id="g-Румпельштильцхен-256" cx="50%" cy="35%" r="70%"><stop offset="0" stop-color="#d2b4de"></stop><stop offset="1" stop-color="#4a235a"></stop></radialGradient><clipPath id="g-Румпельштильцхен-256-clip"><circle cx="50" cy="50" r="48"></circle></clipPath></defs><circle cx="50" cy="50" r="48" fill="url(#g-Румпельштильцхен-256)"></circle><g clip-path="url(#g-Румпельштильцхен-256-clip)"><g><path d="M30 42 C18 30 24 6 50 6 C76 6 82 30 70 42 C66 30 60 26 50 26 C40 26 34 30 30 42Z" fill="#8d6e63"></path><path d="M30 42 C26 36 22 38 20 32 M70 42 C74 36 78 38 80 32" stroke="#6d4c41" stroke-width="3" fill="none"></path><ellipse cx="50" cy="54" rx="20" ry="20" fill="#f0c8a0"></ellipse><path d="M36 48 L46 50 M64 48 L54 50" stroke="#4e342e" stroke-width="2.4" stroke-linecap="round"></path><circle cx="42" cy="54" r="2.4" fill="#2c3e50"></circle><circle cx="58" cy="54" r="2.4" fill="#2c3e50"></circle><path d="M40 66 Q50 74 60 64" stroke="#7b1e2e" stroke-width="2.6" fill="none" stroke-linecap="round"></path><path d="M24 96 C26 80 38 74 50 74 C62 74 74 80 76 96Z" fill="#6c3483"></path><path d="M46 74 L50 84 L54 74Z" fill="#f4d03f"></path></g></g><circle cx="50" cy="50" r="49" fill="none" stroke="#3b2417" stroke-width="5"></circle><circle cx="50" cy="50" r="49" fill="none" stroke="#d4a017" stroke-width="2.5"></circle></svg>
