<?xml version="1.0" encoding="UTF-8"?>
<svg xmlns="http://www.w3.org/2000/svg" width="256" height="256" viewBox="-4 -4 108 108" aria-label="Шрек" role="img"><defs><radialGradient id="g-Шрек-256" cx="50%" cy="35%" r="70%"><stop offset="0" stop-color="#9bc53d"></stop><stop offset="1" stop-color="#3a5a2b"></stop></radialGradient><clipPath id="g-Шрек-256-clip"><circle cx="50" cy="50" r="48"></circle></clipPath></defs><circle cx="50" cy="50" r="48" fill="url(#g-Шрек-256)"></circle><g clip-path="url(#g-Шрек-256-clip)"><g><rect x="14" y="44" width="11" height="7" rx="3" fill="#7fa82e" transform="rotate(-20 19 47)"></rect><rect x="75" y="44" width="11" height="7" rx="3" fill="#7fa82e" transform="rotate(20 81 47)"></rect><ellipse cx="10.5" cy="42.5" rx="3" ry="4" fill="#5d7f1d"></ellipse><ellipse cx="89.5" cy="42.5" rx="3" ry="4" fill="#5d7f1d"></ellipse><path d="M22 92 C22 70 30 64 50 64 C70 64 78 70 78 92Z" fill="#e8dcc0"></path><path d="M30 92 L34 70 L44 67 L42 92Z M70 92 L66 70 L56 67 L58 92Z" fill="#5a3a1c"></path><ellipse cx="50" cy="50" rx="27" ry="26" fill="#8fbc3a"></ellipse><ellipse cx="50" cy="60" rx="22" ry="15" fill="#86b233"></ellipse><path d="M34 38 Q40 34 45 38" stroke="#4d6b16" stroke-width="3" fill="none" stroke-linecap="round"></path><path d="M55 38 Q60 34 66 38" stroke="#4d6b16" stroke-width="3" fill="none" stroke-linecap="round"></path><g><ellipse cx="40" cy="45" rx="5.2" ry="5.6" fill="#fff"></ellipse><circle cx="40.8" cy="45.6" r="2.232" fill="#3a2410"></circle><circle cx="41.8" cy="44.4" r="0.792" fill="#fff"></circle></g><g><ellipse cx="60" cy="45" rx="5.2" ry="5.6" fill="#fff"></ellipse><circle cx="60.8" cy="45.6" r="2.232" fill="#3a2410"></circle><circle cx="61.8" cy="44.4" r="0.792" fill="#fff"></circle></g><ellipse cx="50" cy="55" rx="6" ry="4.5" fill="#7aa52b"></ellipse><path d="M37 64 Q50 71 63 64" stroke="#3f5a12" stroke-width="2.6" fill="none" stroke-linecap="round"></path></g></g><circle cx="50" cy="50" r="49" fill="none" stroke="#3b2417" stroke-width="5"></circle><circle cx="50" cy="50" r="49" fill="none" stroke="#d4a017" stroke-width="2.5"></circle></svg>
